<svg width="256" height="320" version="1.1" xmlns="http://www.w3.org/2000/svg" desc="Created with imagetracer.js version 1.2.6" ><path fill="rgb(200,204,210)" stroke="rgb(200,204,210)" stroke-width="1" opacity="0.10980392156862745" d="M 73.5 40 L 199 40.5 L 73.5 41 L 67 46.5 L 66.5 48 L 66 46.5 L 73.5 40 Z " /><path fill="rgb(200,204,210)" stroke="rgb(200,204,210)" stroke-width="1" opacity="0.10980392156862745" d="M 202.5 42 L 204.5 45 L 202.5 42 Z " /><path fill="rgb(200,204,210)" stroke="rgb(200,204,210)" stroke-width="1" opacity="0.10980392156862745" d="M 205.5 46 L 207 48.5 L 206 48.5 L 205.5 46 Z " /><path fill="rgb(200,204,210)" stroke="rgb(200,204,210)" stroke-width="1" opacity="0.10980392156862745" d="M 65.5 50 L 66 136.5 L 65 136.5 L 65.5 50 Z " /><path fill="rgb(200,204,210)" stroke="rgb(200,204,210)" stroke-width="1" opacity="0.10980392156862745" d="M 205.5 57 L 202.5 61 L 205.5 57 Z " /><path fill="rgb(200,204,210)" stroke="rgb(200,204,210)" stroke-width="1" opacity="0.10980392156862745" d="M 92.5 63 L 96 63.5 L 92.5 64 L 92.5 63 Z " /><path fill="rgb(200,204,210)" stroke="rgb(200,204,210)" stroke-width="1" opacity="0.10980392156862745" d="M 190.5 85 L 194 85.5 L 190.5 86 L 190.5 85 Z " /><path fill="rgb(200,204,210)" stroke="rgb(200,204,210)" stroke-width="1" opacity="0.10980392156862745" d="M 118.5 86 L 123 86.5 Q 115.3 86.8 112.5 92 L 116.5 87 L 118.5 86 Z " /><path fill="rgb(200,204,210)" stroke="rgb(200,204,210)" stroke-width="1" opacity="0.10980392156862745" d="M 196.5 86 L 199 86.5 L 196.5 87 L 196.5 86 Z " /><path fill="rgb(200,204,210)" stroke="rgb(200,204,210)" stroke-width="1" opacity="0.10980392156862745" d="M 202.5 88 L 207 94.5 L 206 94.5 L 202.5 88 Z " /><path fill="rgb(200,204,210)" stroke="rgb(200,204,210)" stroke-width="1" opacity="0.10980392156862745" d="M 110.5 96 L 111 144.5 L 110 144.5 L 110.5 96 Z " /><path fill="rgb(200,204,210)" stroke="rgb(200,204,210)" stroke-width="1" opacity="0.10980392156862745" d="M 134.5 131 L 176.5 131 L 184 136.5 L 179.5 133 L 176.5 132 L 134.5 132 L 134.5 131 Z " /><path fill="rgb(200,204,210)" stroke="rgb(200,204,210)" stroke-width="1" opacity="0.10980392156862745" d="M 65.5 139 L 66 153.5 L 65 153.5 L 65.5 139 Z " /><path fill="rgb(200,204,210)" stroke="rgb(200,204,210)" stroke-width="1" opacity="0.10980392156862745" d="M 111.5 146 L 115.5 152 L 119 153.5 L 117.5 154 L 113 150.5 L 111.5 146 Z " /><path fill="rgb(200,204,210)" stroke="rgb(200,204,210)" stroke-width="1" opacity="0.10980392156862745" d="M 183.5 149 L 180.5 153 L 183.5 149 Z " /><path fill="rgb(200,204,210)" stroke="rgb(200,204,210)" stroke-width="1" opacity="0.10980392156862745" d="M 120.5 154 L 176 154.5 L 120.5 155 L 120.5 154 Z " /><path fill="rgb(200,204,210)" stroke="rgb(200,204,210)" stroke-width="1" opacity="0.10980392156862745" d="M 120.5 177 L 123 177.5 L 120.5 178 L 120.5 177 Z " /><path fill="rgb(200,204,210)" stroke="rgb(200,204,210)" stroke-width="1" opacity="0.10980392156862745" d="M 174.5 177 L 177 177.5 L 174.5 178 L 174.5 177 Z " /><path fill="rgb(200,204,210)" stroke="rgb(200,204,210)" stroke-width="1" opacity="0.10980392156862745" d="M 117.5 178 L 119 178.5 L 113 182.5 L 111.5 186 L 111 184.5 L 115.5 179 L 117.5 178 Z " /><path fill="rgb(200,204,210)" stroke="rgb(200,204,210)" stroke-width="1" opacity="0.10980392156862745" d="M 179.5 178 L 183.5 183 L 179.5 178 Z " /><path fill="rgb(200,204,210)" stroke="rgb(200,204,210)" stroke-width="1" opacity="0.10980392156862745" d="M 110.5 187 L 111 281.5 L 115.5 289 L 119 290.5 L 117.5 291 L 113 287.5 L 110 281.5 L 110.5 187 Z " /><path fill="rgb(200,204,210)" stroke="rgb(200,204,210)" stroke-width="1" opacity="0.10980392156862745" d="M 184.5 192 L 185 193.5 L 183 194.5 L 184.5 192 Z " /><path fill="rgb(200,204,210)" stroke="rgb(200,204,210)" stroke-width="1" opacity="0.10980392156862745" d="M 65.5 229 L 66 281.5 L 65 281.5 L 65.5 229 Z " /><path fill="rgb(200,204,210)" stroke="rgb(200,204,210)" stroke-width="1" opacity="0.10980392156862745" d="M 66.5 284 L 68 286.5 L 66 285.5 L 66.5 284 Z " /><path fill="rgb(200,204,210)" stroke="rgb(200,204,210)" stroke-width="1" opacity="0.10980392156862745" d="M 68.5 288 L 71 289.5 L 69.5 289 L 68.5 288 Z " /><path fill="rgb(200,204,210)" stroke="rgb(200,204,210)" stroke-width="1" opacity="0.10980392156862745" d="M 82.5 289 L 81.5 291 L 80 290.5 L 82.5 289 Z " /><path fill="rgb(0,0,0)" stroke="rgb(0,0,0)" stroke-width="1" opacity="0" d="M 0 0 L 256 0 L 256 320 L 0 320 L 0 0 Z M 74 40 L 72 41 L 66 47 L 65 51 L 65 137 L 66 138 L 65 140 L 65 154 L 66 155 L 66 229 L 65 230 L 65 282 L 68 289 L 73 291 L 82 291 L 85 289 L 88 283 L 88 65 L 90 63 L 93 64 L 97 63 L 199 63 L 203 61 L 207 56 Q 209 47 205 45 L 199 40 L 74 40 Z M 191 85 L 190 86 L 119 86 L 117 87 Q 112 90 110 97 L 110 145 L 113 151 L 121 155 L 176 155 L 181 153 Q 185 150 186 144 L 184 137 L 177 131 L 134 131 L 134 111 L 136 109 L 197 109 L 201 108 L 207 101 L 206 92 L 199 86 L 191 85 Z M 121 177 L 116 179 Q 111 182 110 188 L 110 282 L 113 288 L 118 291 Q 125 293 129 290 L 133 286 L 134 282 L 134 200 L 178 200 L 180 199 L 185 194 L 186 190 L 184 183 L 177 177 L 121 177 Z " /><path fill="rgb(21,33,64)" stroke="rgb(21,33,64)" stroke-width="1" opacity="0.9764705882352941" d="M 73.5 41 L 199.5 41 L 205 45.5 Q 207.7 47.8 207 53.5 Q 205.6 59.6 200.5 62 L 197.5 63 L 88 63 L 88 281.5 L 83.5 289 Q 80.5 292 73.5 291 L 68 288 L 66 283.5 L 66 48.5 L 71.5 42 L 73.5 41 Z " /><path fill="rgb(21,33,64)" stroke="rgb(21,33,64)" stroke-width="1" opacity="0.9764705882352941" d="M 123.5 86 L 195.5 86 Q 202.1 86.9 205 91.5 Q 207.7 93.8 207 99.5 L 201.5 107 L 195.5 109 L 134 109 L 134 132 L 176.5 132 L 184 137.5 L 185 146.5 L 179.5 153 L 176.5 154 L 119.5 154 L 114 150.5 L 111 145.5 L 111 95.5 L 116.5 88 L 123.5 86 Z " /><path fill="rgb(21,33,64)" stroke="rgb(21,33,64)" stroke-width="1" opacity="0.9764705882352941" d="M 123.5 177 L 173.5 177 L 178.5 178 L 184 183.5 L 185 191.5 L 180.5 198 L 176.5 200 L 134 200 L 134 280.5 L 132 286.5 L 129.5 289 Q 126.5 292 119.5 291 L 114 287.5 L 111 281.5 L 111 186.5 L 115.5 180 L 123.5 177 Z " /></svg>